<?xml version="1.0" encoding="utf-8"?>
<!-- Generator: Adobe Illustrator 25.2.1, SVG Export Plug-In . SVG Version: 6.00 Build 0)  -->
<svg version="1.1" id="Layer_1" xmlns="http://www.w3.org/2000/svg" xmlns:xlink="http://www.w3.org/1999/xlink" x="0px" y="0px"
	 viewBox="0 0 500 281" style="enable-background:new 0 0 500 281;" xml:space="preserve">
<style type="text/css">
	.st0{fill:#010101;}
</style>
<g>
	<polygon points="247.3,207.4 177.2,243.6 191,165.9 134.9,110.5 213.1,99.6 248.5,29.1 282.9,100.1 360.9,112 304.1,166.7 
		316.9,244.6 	"/>
	<path class="st0" d="M248.5,32.4l32.8,67.6l0.7,1.4l1.5,0.2l74.3,11.3l-54.2,52.1l-1.1,1.1l0.2,1.5l12.2,74.2l-66.3-35.4l-1.4-0.7
		l-1.4,0.7l-66.8,34.5l13.2-74l0.3-1.5l-1.1-1.1l-53.5-52.8l74.5-10.3l1.5-0.2l0.7-1.4L248.5,32.4 M248.5,25.8l-36.4,72.5
		l-80.3,11.1l57.7,57l-14.3,79.8l72-37.3l71.5,38.2l-13.2-80l58.5-56.2l-80.2-12.2L248.5,25.8L248.5,25.8z"/>
</g>
</svg>
